<svg xmlns="http://www.w3.org/2000/svg" version="1.1" xmlns:xlink="http://www.w3.org/1999/xlink" xmlns:svgjs="http://svgjs.com/svgjs" width="1440" height="560" preserveAspectRatio="none" viewBox="0 0 1440 560"><g mask="url(&quot;#SvgjsMask1000&quot;)" fill="none"><rect width="1440" height="560" x="0" y="0" fill="#0e2a47"></rect><path d="M-84.76 360.19L-84.76 360.19" stroke="#132e65" stroke-width="1.5"></path><path d="M-84.76 360.19L54.4 348.06" stroke="#132e65" stroke-width="1.5"></path><path d="M-84.76 360.19L-39.8 500.22" stroke="#132e65" stroke-width="1.5"></path><path d="M-84.76 360.19L65.55 518.04" stroke="#132e65" stroke-width="1.5"></path><path d="M-39.8 500.22L-39.8 500.22" stroke="#132e65" stroke-width="1.5"></path><path d="M-39.8 500.22L65.55 518.04" stroke="#132e65" stroke-width="1.5"></path><path d="M-64.03 709.58L-64.03 709.58" stroke="#132e65" stroke-width="1.5"></path><path d="M-64.03 709.58L103.3 681.51" stroke="#132e65" stroke-width="1.5"></path><path d="M-64.03 709.58L-39.8 500.22" stroke="#132e65" stroke-width="1.5"></path><path d="M-64.03 709.58L65.55 518.04" stroke="#132e65" stroke-width="1.5"></path><path d="M-64.03 709.58L204.42 686.76" stroke="#132e65" stroke-width="1.5"></path><path d="M-64.03 709.58L221.87 511.87" stroke="#132e65" stroke-width="1.5"></path><path d="M-64.03 709.58L-84.76 360.19" stroke="#132e65" stroke-width="1.5"></path><path d="M54.4 348.06L54.4 348.06" stroke="#132e65" stroke-width="1.5"></path><path d="M54.4 348.06L65.55 518.04" stroke="#132e65" stroke-width="1.5"></path><path d="M54.4 348.06L-39.8 500.22" stroke="#132e65" stroke-width="1.5"></path><path d="M65.55 518.04L65.55 518.04" stroke="#132e65" stroke-width="1.5"></path><path d="M65.55 518.04L221.87 511.87" stroke="#132e65" stroke-width="1.5"></path><path d="M65.55 518.04L103.3 681.51" stroke="#132e65" stroke-width="1.5"></path><path d="M103.3 681.51L103.3 681.51" stroke="#132e65" stroke-width="1.5"></path><path d="M103.3 681.51L204.42 686.76" stroke="#132e65" stroke-width="1.5"></path><path d="M103.3 681.51L221.87 511.87" stroke="#132e65" stroke-width="1.5"></path><path d="M103.3 681.51L-39.8 500.22" stroke="#132e65" stroke-width="1.5"></path><path d="M221.87 511.87L221.87 511.87" stroke="#132e65" stroke-width="1.5"></path><path d="M221.87 511.87L382.86 530.46" stroke="#132e65" stroke-width="1.5"></path><path d="M221.87 511.87L204.42 686.76" stroke="#132e65" stroke-width="1.5"></path><path d="M221.87 511.87L339.44 645.95" stroke="#132e65" stroke-width="1.5"></path><path d="M204.42 686.76L204.42 686.76" stroke="#132e65" stroke-width="1.5"></path><path d="M204.42 686.76L339.44 645.95" stroke="#132e65" stroke-width="1.5"></path><path d="M204.42 686.76L65.55 518.04" stroke="#132e65" stroke-width="1.5"></path><path d="M204.42 686.76L382.86 530.46" stroke="#132e65" stroke-width="1.5"></path><path d="M389.3 360.65L389.3 360.65" stroke="#132e65" stroke-width="1.5"></path><path d="M389.3 360.65L499.56 394.66" stroke="#132e65" stroke-width="1.5"></path><path d="M389.3 360.65L382.86 530.46" stroke="#132e65" stroke-width="1.5"></path><path d="M389.3 360.65L221.87 511.87" stroke="#132e65" stroke-width="1.5"></path><path d="M389.3 360.65L504.12 557.35" stroke="#132e65" stroke-width="1.5"></path><path d="M382.86 530.46L382.86 530.46" stroke="#132e65" stroke-width="1.5"></path><path d="M382.86 530.46L339.44 645.95" stroke="#132e65" stroke-width="1.5"></path><path d="M382.86 530.46L504.12 557.35" stroke="#132e65" stroke-width="1.5"></path><path d="M339.44 645.95L339.44 645.95" stroke="#132e65" stroke-width="1.5"></path><path d="M339.44 645.95L515.74 650.53" stroke="#132e65" stroke-width="1.5"></path><path d="M499.56 394.66L499.56 394.66" stroke="#132e65" stroke-width="1.5"></path><path d="M499.56 394.66L653.2 381.64" stroke="#132e65" stroke-width="1.5"></path><path d="M499.56 394.66L504.12 557.35" stroke="#132e65" stroke-width="1.5"></path><path d="M504.12 557.35L504.12 557.35" stroke="#132e65" stroke-width="1.5"></path><path d="M504.12 557.35L515.74 650.53" stroke="#132e65" stroke-width="1.5"></path><path d="M504.12 557.35L663.95 521.81" stroke="#132e65" stroke-width="1.5"></path><path d="M504.12 557.35L339.44 645.95" stroke="#132e65" stroke-width="1.5"></path><path d="M515.74 650.53L515.74 650.53" stroke="#132e65" stroke-width="1.5"></path><path d="M515.74 650.53L382.86 530.46" stroke="#132e65" stroke-width="1.5"></path><path d="M706.75 250.72L706.75 250.72" stroke="#132e65" stroke-width="1.5"></path><path d="M706.75 250.72L829.82 260.4" stroke="#132e65" stroke-width="1.5"></path><path d="M653.2 381.64L653.2 381.64" stroke="#132e65" stroke-width="1.5"></path><path d="M653.2 381.64L663.95 521.81" stroke="#132e65" stroke-width="1.5"></path><path d="M653.2 381.64L706.75 250.72" stroke="#132e65" stroke-width="1.5"></path><path d="M663.95 521.81L663.95 521.81" stroke="#132e65" stroke-width="1.5"></path><path d="M663.95 521.81L832.63 557.69" stroke="#132e65" stroke-width="1.5"></path><path d="M691.27 710.56L691.27 710.56" stroke="#132e65" stroke-width="1.5"></path><path d="M691.27 710.56L839.11 669.44" stroke="#132e65" stroke-width="1.5"></path><path d="M691.27 710.56L515.74 650.53" stroke="#132e65" stroke-width="1.5"></path><path d="M829.82 260.4L829.82 260.4" stroke="#132e65" stroke-width="1.5"></path><path d="M829.82 260.4L831.81 339.17" stroke="#132e65" stroke-width="1.5"></path><path d="M829.82 260.4L943.86 205.21" stroke="#132e65" stroke-width="1.5"></path><path d="M829.82 260.4L992.93 383.8" stroke="#132e65" stroke-width="1.5"></path><path d="M831.81 339.17L831.81 339.17" stroke="#132e65" stroke-width="1.5"></path><path d="M831.81 339.17L706.75 250.72" stroke="#132e65" stroke-width="1.5"></path><path d="M831.81 339.17L992.93 383.8" stroke="#132e65" stroke-width="1.5"></path><path d="M831.81 339.17L943.86 205.21" stroke="#132e65" stroke-width="1.5"></path><path d="M831.81 339.17L653.2 381.64" stroke="#132e65" stroke-width="1.5"></path><path d="M831.81 339.17L832.63 557.69" stroke="#132e65" stroke-width="1.5"></path><path d="M832.63 557.69L832.63 557.69" stroke="#132e65" stroke-width="1.5"></path><path d="M832.63 557.69L839.11 669.44" stroke="#132e65" stroke-width="1.5"></path><path d="M832.63 557.69L975.09 646.3" stroke="#132e65" stroke-width="1.5"></path><path d="M832.63 557.69L691.27 710.56" stroke="#132e65" stroke-width="1.5"></path><path d="M832.63 557.69L992.93 383.8" stroke="#132e65" stroke-width="1.5"></path><path d="M839.11 669.44L839.11 669.44" stroke="#132e65" stroke-width="1.5"></path><path d="M839.11 669.44L975.09 646.3" stroke="#132e65" stroke-width="1.5"></path><path d="M839.11 669.44L663.95 521.81" stroke="#132e65" stroke-width="1.5"></path><path d="M839.11 669.44L1117.8 676.04" stroke="#132e65" stroke-width="1.5"></path><path d="M839.11 669.44L515.74 650.53" stroke="#132e65" stroke-width="1.5"></path><path d="M942.04 -84.13L942.04 -84.13" stroke="#132e65" stroke-width="1.5"></path><path d="M942.04 -84.13L1099.44 -39.04" stroke="#132e65" stroke-width="1.5"></path><path d="M942.04 -84.13L997.19 74.66" stroke="#132e65" stroke-width="1.5"></path><path d="M942.04 -84.13L1109.44 67.46" stroke="#132e65" stroke-width="1.5"></path><path d="M942.04 -84.13L943.86 205.21" stroke="#132e65" stroke-width="1.5"></path><path d="M942.04 -84.13L1127.67 209.64" stroke="#132e65" stroke-width="1.5"></path><path d="M997.19 74.66L997.19 74.66" stroke="#132e65" stroke-width="1.5"></path><path d="M997.19 74.66L1109.44 67.46" stroke="#132e65" stroke-width="1.5"></path><path d="M997.19 74.66L943.86 205.21" stroke="#132e65" stroke-width="1.5"></path><path d="M997.19 74.66L1099.44 -39.04" stroke="#132e65" stroke-width="1.5"></path><path d="M997.19 74.66L1127.67 209.64" stroke="#132e65" stroke-width="1.5"></path><path d="M997.19 74.66L829.82 260.4" stroke="#132e65" stroke-width="1.5"></path><path d="M943.86 205.21L943.86 205.21" stroke="#132e65" stroke-width="1.5"></path><path d="M943.86 205.21L1127.67 209.64" stroke="#132e65" stroke-width="1.5"></path><path d="M943.86 205.21L992.93 383.8" stroke="#132e65" stroke-width="1.5"></path><path d="M992.93 383.8L992.93 383.8" stroke="#132e65" stroke-width="1.5"></path><path d="M992.93 383.8L1125.38 383.65" stroke="#132e65" stroke-width="1.5"></path><path d="M975.09 646.3L975.09 646.3" stroke="#132e65" stroke-width="1.5"></path><path d="M975.09 646.3L1117.8 676.04" stroke="#132e65" stroke-width="1.5"></path><path d="M975.09 646.3L992.93 383.8" stroke="#132e65" stroke-width="1.5"></path><path d="M1099.44 -39.04L1099.44 -39.04" stroke="#132e65" stroke-width="1.5"></path><path d="M1099.44 -39.04L1109.44 67.46" stroke="#132e65" stroke-width="1.5"></path><path d="M1099.44 -39.04L1299.83 -42.24" stroke="#132e65" stroke-width="1.5"></path><path d="M1099.44 -39.04L1287.22 110.46" stroke="#132e65" stroke-width="1.5"></path><path d="M1099.44 -39.04L1127.67 209.64" stroke="#132e65" stroke-width="1.5"></path><path d="M1109.44 67.46L1109.44 67.46" stroke="#132e65" stroke-width="1.5"></path><path d="M1109.44 67.46L1127.67 209.64" stroke="#132e65" stroke-width="1.5"></path><path d="M1127.67 209.64L1127.67 209.64" stroke="#132e65" stroke-width="1.5"></path><path d="M1127.67 209.64L1125.38 383.65" stroke="#132e65" stroke-width="1.5"></path><path d="M1125.38 383.65L1125.38 383.65" stroke="#132e65" stroke-width="1.5"></path><path d="M1125.38 383.65L1312.05 368.84" stroke="#132e65" stroke-width="1.5"></path><path d="M1117.8 676.04L1117.8 676.04" stroke="#132e65" stroke-width="1.5"></path><path d="M1117.8 676.04L1299.96 638.17" stroke="#132e65" stroke-width="1.5"></path><path d="M1117.8 676.04L1305.95 491.84" stroke="#132e65" stroke-width="1.5"></path><path d="M1299.83 -42.24L1299.83 -42.24" stroke="#132e65" stroke-width="1.5"></path><path d="M1299.83 -42.24L1412.87 -79.09" stroke="#132e65" stroke-width="1.5"></path><path d="M1299.83 -42.24L1287.22 110.46" stroke="#132e65" stroke-width="1.5"></path><path d="M1299.83 -42.24L1109.44 67.46" stroke="#132e65" stroke-width="1.5"></path><path d="M1287.22 110.46L1287.22 110.46" stroke="#132e65" stroke-width="1.5"></path><path d="M1287.22 110.46L1308.22 232.23" stroke="#132e65" stroke-width="1.5"></path><path d="M1287.22 110.46L1109.44 67.46" stroke="#132e65" stroke-width="1.5"></path><path d="M1287.22 110.46L1127.67 209.64" stroke="#132e65" stroke-width="1.5"></path><path d="M1287.22 110.46L1406.24 262.28" stroke="#132e65" stroke-width="1.5"></path><path d="M1287.22 110.46L1412.87 -79.09" stroke="#132e65" stroke-width="1.5"></path><path d="M1308.22 232.23L1308.22 232.23" stroke="#132e65" stroke-width="1.5"></path><path d="M1308.22 232.23L1406.24 262.28" stroke="#132e65" stroke-width="1.5"></path><path d="M1308.22 232.23L1312.05 368.84" stroke="#132e65" stroke-width="1.5"></path><path d="M1308.22 232.23L1127.67 209.64" stroke="#132e65" stroke-width="1.5"></path><path d="M1308.22 232.23L1427.24 400.7" stroke="#132e65" stroke-width="1.5"></path><path d="M1308.22 232.23L1125.38 383.65" stroke="#132e65" stroke-width="1.5"></path><path d="M1312.05 368.84L1312.05 368.84" stroke="#132e65" stroke-width="1.5"></path><path d="M1312.05 368.84L1427.24 400.7" stroke="#132e65" stroke-width="1.5"></path><path d="M1312.05 368.84L1305.95 491.84" stroke="#132e65" stroke-width="1.5"></path><path d="M1312.05 368.84L1406.24 262.28" stroke="#132e65" stroke-width="1.5"></path><path d="M1305.95 491.84L1305.95 491.84" stroke="#132e65" stroke-width="1.5"></path><path d="M1305.95 491.84L1395.29 498.68" stroke="#132e65" stroke-width="1.5"></path><path d="M1299.96 638.17L1299.96 638.17" stroke="#132e65" stroke-width="1.5"></path><path d="M1299.96 638.17L1432.1 687.49" stroke="#132e65" stroke-width="1.5"></path><path d="M1299.96 638.17L1305.95 491.84" stroke="#132e65" stroke-width="1.5"></path><path d="M1412.87 -79.09L1412.87 -79.09" stroke="#132e65" stroke-width="1.5"></path><path d="M1412.87 -79.09L1573.25 -85.57" stroke="#132e65" stroke-width="1.5"></path><path d="M1412.87 -79.09L1568.47 98.84" stroke="#132e65" stroke-width="1.5"></path><path d="M1406.24 262.28L1406.24 262.28" stroke="#132e65" stroke-width="1.5"></path><path d="M1406.24 262.28L1427.24 400.7" stroke="#132e65" stroke-width="1.5"></path><path d="M1406.24 262.28L1562.77 213.87" stroke="#132e65" stroke-width="1.5"></path><path d="M1406.24 262.28L1580.88 408.53" stroke="#132e65" stroke-width="1.5"></path><path d="M1427.24 400.7L1427.24 400.7" stroke="#132e65" stroke-width="1.5"></path><path d="M1427.24 400.7L1395.29 498.68" stroke="#132e65" stroke-width="1.5"></path><path d="M1395.29 498.68L1395.29 498.68" stroke="#132e65" stroke-width="1.5"></path><path d="M1395.29 498.68L1312.05 368.84" stroke="#132e65" stroke-width="1.5"></path><path d="M1395.29 498.68L1299.96 638.17" stroke="#132e65" stroke-width="1.5"></path><path d="M1432.1 687.49L1432.1 687.49" stroke="#132e65" stroke-width="1.5"></path><path d="M1432.1 687.49L1541.17 652.54" stroke="#132e65" stroke-width="1.5"></path><path d="M1432.1 687.49L1395.29 498.68" stroke="#132e65" stroke-width="1.5"></path><path d="M1432.1 687.49L1598.4 529.12" stroke="#132e65" stroke-width="1.5"></path><path d="M1573.25 -85.57L1573.25 -85.57" stroke="#132e65" stroke-width="1.5"></path><path d="M1573.25 -85.57L1568.47 98.84" stroke="#132e65" stroke-width="1.5"></path><path d="M1568.47 98.84L1568.47 98.84" stroke="#132e65" stroke-width="1.5"></path><path d="M1568.47 98.84L1562.77 213.87" stroke="#132e65" stroke-width="1.5"></path><path d="M1568.47 98.84L1406.24 262.28" stroke="#132e65" stroke-width="1.5"></path><path d="M1568.47 98.84L1287.22 110.46" stroke="#132e65" stroke-width="1.5"></path><path d="M1568.47 98.84L1308.22 232.23" stroke="#132e65" stroke-width="1.5"></path><path d="M1562.77 213.87L1562.77 213.87" stroke="#132e65" stroke-width="1.5"></path><path d="M1562.77 213.87L1580.88 408.53" stroke="#132e65" stroke-width="1.5"></path><path d="M1562.77 213.87L1427.24 400.7" stroke="#132e65" stroke-width="1.5"></path><path d="M1562.77 213.87L1308.22 232.23" stroke="#132e65" stroke-width="1.5"></path><path d="M1562.77 213.87L1287.22 110.46" stroke="#132e65" stroke-width="1.5"></path><path d="M1580.88 408.53L1580.88 408.53" stroke="#132e65" stroke-width="1.5"></path><path d="M1580.88 408.53L1598.4 529.12" stroke="#132e65" stroke-width="1.5"></path><path d="M1580.88 408.53L1427.24 400.7" stroke="#132e65" stroke-width="1.5"></path><path d="M1598.4 529.12L1598.4 529.12" stroke="#132e65" stroke-width="1.5"></path><path d="M1598.4 529.12L1541.17 652.54" stroke="#132e65" stroke-width="1.5"></path><path d="M1598.4 529.12L1395.29 498.68" stroke="#132e65" stroke-width="1.5"></path><path d="M1541.17 652.54L1541.17 652.54" stroke="#132e65" stroke-width="1.5"></path><circle r="5" cx="-84.76" cy="360.19" fill="#132e65"></circle><circle r="5" cx="-39.8" cy="500.22" fill="#132e65"></circle><circle r="5" cx="-64.03" cy="709.58" fill="#132e65"></circle><circle r="5" cx="54.4" cy="348.06" fill="#132e65"></circle><circle r="5" cx="65.55" cy="518.04" fill="#132e65"></circle><circle r="5" cx="103.3" cy="681.51" fill="#132e65"></circle><circle r="5" cx="221.87" cy="511.87" fill="#132e65"></circle><circle r="5" cx="204.42" cy="686.76" fill="#132e65"></circle><circle r="5" cx="389.3" cy="360.65" fill="#132e65"></circle><circle r="5" cx="382.86" cy="530.46" fill="#132e65"></circle><circle r="5" cx="339.44" cy="645.95" fill="#132e65"></circle><circle r="5" cx="499.56" cy="394.66" fill="#132e65"></circle><circle r="5" cx="504.12" cy="557.35" fill="#132e65"></circle><circle r="5" cx="515.74" cy="650.53" fill="#132e65"></circle><circle r="5" cx="706.75" cy="250.72" fill="#132e65"></circle><circle r="5" cx="653.2" cy="381.64" fill="#132e65"></circle><circle r="5" cx="663.95" cy="521.81" fill="#132e65"></circle><circle r="5" cx="691.27" cy="710.56" fill="#132e65"></circle><circle r="5" cx="829.82" cy="260.4" fill="#132e65"></circle><circle r="5" cx="831.81" cy="339.17" fill="#132e65"></circle><circle r="5" cx="832.63" cy="557.69" fill="#132e65"></circle><circle r="5" cx="839.11" cy="669.44" fill="#132e65"></circle><circle r="5" cx="942.04" cy="-84.13" fill="#132e65"></circle><circle r="5" cx="997.19" cy="74.66" fill="#132e65"></circle><circle r="5" cx="943.86" cy="205.21" fill="#132e65"></circle><circle r="5" cx="992.93" cy="383.8" fill="#132e65"></circle><circle r="5" cx="975.09" cy="646.3" fill="#132e65"></circle><circle r="5" cx="1099.44" cy="-39.04" fill="#132e65"></circle><circle r="5" cx="1109.44" cy="67.46" fill="#132e65"></circle><circle r="5" cx="1127.67" cy="209.64" fill="#132e65"></circle><circle r="5" cx="1125.38" cy="383.65" fill="#132e65"></circle><circle r="5" cx="1117.8" cy="676.04" fill="#132e65"></circle><circle r="5" cx="1299.83" cy="-42.24" fill="#132e65"></circle><circle r="5" cx="1287.22" cy="110.46" fill="#132e65"></circle><circle r="5" cx="1308.22" cy="232.23" fill="#132e65"></circle><circle r="5" cx="1312.05" cy="368.84" fill="#132e65"></circle><circle r="5" cx="1305.95" cy="491.84" fill="#132e65"></circle><circle r="5" cx="1299.96" cy="638.17" fill="#132e65"></circle><circle r="5" cx="1412.87" cy="-79.09" fill="#132e65"></circle><circle r="5" cx="1406.24" cy="262.28" fill="#132e65"></circle><circle r="5" cx="1427.24" cy="400.7" fill="#132e65"></circle><circle r="5" cx="1395.29" cy="498.68" fill="#132e65"></circle><circle r="5" cx="1432.1" cy="687.49" fill="#132e65"></circle><circle r="5" cx="1573.25" cy="-85.57" fill="#132e65"></circle><circle r="5" cx="1568.47" cy="98.84" fill="#132e65"></circle><circle r="5" cx="1562.77" cy="213.87" fill="#132e65"></circle><circle r="5" cx="1580.88" cy="408.53" fill="#132e65"></circle><circle r="5" cx="1598.4" cy="529.12" fill="#132e65"></circle><circle r="5" cx="1541.17" cy="652.54" fill="#132e65"></circle><path d="M56.61 681.39L56.61 681.39" stroke="hsl(228.5, 77.2%, 51.5%)" stroke-width="1.5"></path><path d="M56.61 681.39L-99.7 691.57" stroke="hsl(228.5, 77.2%, 51.5%)" stroke-width="1.5"></path><path d="M56.61 681.39L79.9 522.38" stroke="hsl(228.5, 77.2%, 51.5%)" stroke-width="1.5"></path><path d="M56.61 681.39L-77.12 514.27" stroke="hsl(228.5, 77.2%, 51.5%)" stroke-width="1.5"></path><path d="M56.61 681.39L223.31 535.01" stroke="hsl(228.5, 77.2%, 51.5%)" stroke-width="1.5"></path><path d="M56.61 681.39L337.54 694.02" stroke="hsl(228.5, 77.2%, 51.5%)" stroke-width="1.5"></path><path d="M56.61 681.39L406.89 503.48" stroke="hsl(228.5, 77.2%, 51.5%)" stroke-width="1.5"></path><path d="M686.47 385.99L686.47 385.99" stroke="hsl(228.5, 77.2%, 51.5%)" stroke-width="1.5"></path><path d="M686.47 385.99L673.95 542.94" stroke="hsl(228.5, 77.2%, 51.5%)" stroke-width="1.5"></path><path d="M686.47 385.99L851.73 369.94" stroke="hsl(228.5, 77.2%, 51.5%)" stroke-width="1.5"></path><path d="M686.47 385.99L857.51 505.97" stroke="hsl(228.5, 77.2%, 51.5%)" stroke-width="1.5"></path><path d="M686.47 385.99L676.9 645.46" stroke="hsl(228.5, 77.2%, 51.5%)" stroke-width="1.5"></path><path d="M857.51 505.97L857.51 505.97" stroke="hsl(228.5, 77.2%, 51.5%)" stroke-width="1.5"></path><path d="M857.51 505.97L851.73 369.94" stroke="hsl(228.5, 77.2%, 51.5%)" stroke-width="1.5"></path><path d="M857.51 505.97L837.95 646.13" stroke="hsl(228.5, 77.2%, 51.5%)" stroke-width="1.5"></path><path d="M998.56 527.42L998.56 527.42" stroke="hsl(228.5, 77.2%, 51.5%)" stroke-width="1.5"></path><path d="M998.56 527.42L1006.64 657.29" stroke="hsl(228.5, 77.2%, 51.5%)" stroke-width="1.5"></path><path d="M998.56 527.42L1136.26 519.69" stroke="hsl(228.5, 77.2%, 51.5%)" stroke-width="1.5"></path><path d="M998.56 527.42L857.51 505.97" stroke="hsl(228.5, 77.2%, 51.5%)" stroke-width="1.5"></path><path d="M998.56 527.42L966.01 358.68" stroke="hsl(228.5, 77.2%, 51.5%)" stroke-width="1.5"></path><path d="M998.56 527.42L837.95 646.13" stroke="hsl(228.5, 77.2%, 51.5%)" stroke-width="1.5"></path><path d="M1136.26 519.69L1136.26 519.69" stroke="hsl(228.5, 77.2%, 51.5%)" stroke-width="1.5"></path><path d="M1136.26 519.69L1242.85 522.65" stroke="hsl(228.5, 77.2%, 51.5%)" stroke-width="1.5"></path><path d="M1136.26 519.69L1250.62 391.65" stroke="hsl(228.5, 77.2%, 51.5%)" stroke-width="1.5"></path><path d="M1136.26 519.69L1118.51 339.45" stroke="hsl(228.5, 77.2%, 51.5%)" stroke-width="1.5"></path><path d="M1136.26 519.69L1107.84 703.42" stroke="hsl(228.5, 77.2%, 51.5%)" stroke-width="1.5"></path><path d="M1107.84 703.42L1107.84 703.42" stroke="hsl(228.5, 77.2%, 51.5%)" stroke-width="1.5"></path><path d="M1107.84 703.42L1006.64 657.29" stroke="hsl(228.5, 77.2%, 51.5%)" stroke-width="1.5"></path><path d="M1107.84 703.42L1244.56 675.13" stroke="hsl(228.5, 77.2%, 51.5%)" stroke-width="1.5"></path><path d="M1270.28 -38.39L1270.28 -38.39" stroke="hsl(228.5, 77.2%, 51.5%)" stroke-width="1.5"></path><path d="M1270.28 -38.39L1266.75 91.62" stroke="hsl(228.5, 77.2%, 51.5%)" stroke-width="1.5"></path><path d="M1270.28 -38.39L1456.58 -53.35" stroke="hsl(228.5, 77.2%, 51.5%)" stroke-width="1.5"></path><path d="M1270.28 -38.39L1449.88 46.19" stroke="hsl(228.5, 77.2%, 51.5%)" stroke-width="1.5"></path><path d="M1270.28 -38.39L1280.19 239.03" stroke="hsl(228.5, 77.2%, 51.5%)" stroke-width="1.5"></path><path d="M1456.58 -53.35L1456.58 -53.35" stroke="hsl(228.5, 77.2%, 51.5%)" stroke-width="1.5"></path><path d="M1456.58 -53.35L1449.88 46.19" stroke="hsl(228.5, 77.2%, 51.5%)" stroke-width="1.5"></path><path d="M1456.58 -53.35L1567.5 -99.21" stroke="hsl(228.5, 77.2%, 51.5%)" stroke-width="1.5"></path><path d="M1456.58 -53.35L1554.26 59.21" stroke="hsl(228.5, 77.2%, 51.5%)" stroke-width="1.5"></path><path d="M1456.58 -53.35L1266.75 91.62" stroke="hsl(228.5, 77.2%, 51.5%)" stroke-width="1.5"></path><path d="M1456.58 -53.35L1422.07 213.44" stroke="hsl(228.5, 77.2%, 51.5%)" stroke-width="1.5"></path><path d="M-77.12 514.27L-77.12 514.27" stroke="hsl(228.5, 77.2%, 51.5%)" stroke-width="1.5"></path><path d="M-77.12 514.27L79.9 522.38" stroke="hsl(228.5, 77.2%, 51.5%)" stroke-width="1.5"></path><path d="M-77.12 514.27L-99.7 691.57" stroke="hsl(228.5, 77.2%, 51.5%)" stroke-width="1.5"></path><path d="M-99.7 691.57L-99.7 691.57" stroke="hsl(228.5, 77.2%, 51.5%)" stroke-width="1.5"></path><path d="M-99.7 691.57L79.9 522.38" stroke="hsl(228.5, 77.2%, 51.5%)" stroke-width="1.5"></path><path d="M-99.7 691.57L223.31 535.01" stroke="hsl(228.5, 77.2%, 51.5%)" stroke-width="1.5"></path><path d="M-99.7 691.57L337.54 694.02" stroke="hsl(228.5, 77.2%, 51.5%)" stroke-width="1.5"></path><path d="M79.9 522.38L79.9 522.38" stroke="hsl(228.5, 77.2%, 51.5%)" stroke-width="1.5"></path><path d="M79.9 522.38L223.31 535.01" stroke="hsl(228.5, 77.2%, 51.5%)" stroke-width="1.5"></path><path d="M223.31 535.01L223.31 535.01" stroke="hsl(228.5, 77.2%, 51.5%)" stroke-width="1.5"></path><path d="M223.31 535.01L406.89 503.48" stroke="hsl(228.5, 77.2%, 51.5%)" stroke-width="1.5"></path><path d="M406.89 503.48L406.89 503.48" stroke="hsl(228.5, 77.2%, 51.5%)" stroke-width="1.5"></path><path d="M406.89 503.48L337.54 694.02" stroke="hsl(228.5, 77.2%, 51.5%)" stroke-width="1.5"></path><path d="M406.89 503.48L499.6 702.35" stroke="hsl(228.5, 77.2%, 51.5%)" stroke-width="1.5"></path><path d="M406.89 503.48L673.95 542.94" stroke="hsl(228.5, 77.2%, 51.5%)" stroke-width="1.5"></path><path d="M406.89 503.48L686.47 385.99" stroke="hsl(228.5, 77.2%, 51.5%)" stroke-width="1.5"></path><path d="M337.54 694.02L337.54 694.02" stroke="hsl(228.5, 77.2%, 51.5%)" stroke-width="1.5"></path><path d="M337.54 694.02L499.6 702.35" stroke="hsl(228.5, 77.2%, 51.5%)" stroke-width="1.5"></path><path d="M337.54 694.02L223.31 535.01" stroke="hsl(228.5, 77.2%, 51.5%)" stroke-width="1.5"></path><path d="M499.6 702.35L499.6 702.35" stroke="hsl(228.5, 77.2%, 51.5%)" stroke-width="1.5"></path><path d="M499.6 702.35L676.9 645.46" stroke="hsl(228.5, 77.2%, 51.5%)" stroke-width="1.5"></path><path d="M673.95 542.94L673.95 542.94" stroke="hsl(228.5, 77.2%, 51.5%)" stroke-width="1.5"></path><path d="M673.95 542.94L676.9 645.46" stroke="hsl(228.5, 77.2%, 51.5%)" stroke-width="1.5"></path><path d="M676.9 645.46L676.9 645.46" stroke="hsl(228.5, 77.2%, 51.5%)" stroke-width="1.5"></path><path d="M676.9 645.46L837.95 646.13" stroke="hsl(228.5, 77.2%, 51.5%)" stroke-width="1.5"></path><path d="M676.9 645.46L857.51 505.97" stroke="hsl(228.5, 77.2%, 51.5%)" stroke-width="1.5"></path><path d="M851.73 369.94L851.73 369.94" stroke="hsl(228.5, 77.2%, 51.5%)" stroke-width="1.5"></path><path d="M851.73 369.94L966.01 358.68" stroke="hsl(228.5, 77.2%, 51.5%)" stroke-width="1.5"></path><path d="M851.73 369.94L998.56 527.42" stroke="hsl(228.5, 77.2%, 51.5%)" stroke-width="1.5"></path><path d="M851.73 369.94L673.95 542.94" stroke="hsl(228.5, 77.2%, 51.5%)" stroke-width="1.5"></path><path d="M837.95 646.13L837.95 646.13" stroke="hsl(228.5, 77.2%, 51.5%)" stroke-width="1.5"></path><path d="M837.95 646.13L1006.64 657.29" stroke="hsl(228.5, 77.2%, 51.5%)" stroke-width="1.5"></path><path d="M837.95 646.13L673.95 542.94" stroke="hsl(228.5, 77.2%, 51.5%)" stroke-width="1.5"></path><path d="M966.01 358.68L966.01 358.68" stroke="hsl(228.5, 77.2%, 51.5%)" stroke-width="1.5"></path><path d="M966.01 358.68L1118.51 339.45" stroke="hsl(228.5, 77.2%, 51.5%)" stroke-width="1.5"></path><path d="M1006.64 657.29L1006.64 657.29" stroke="hsl(228.5, 77.2%, 51.5%)" stroke-width="1.5"></path><path d="M1006.64 657.29L1136.26 519.69" stroke="hsl(228.5, 77.2%, 51.5%)" stroke-width="1.5"></path><path d="M1097.4 203.1L1097.4 203.1" stroke="hsl(228.5, 77.2%, 51.5%)" stroke-width="1.5"></path><path d="M1097.4 203.1L1118.51 339.45" stroke="hsl(228.5, 77.2%, 51.5%)" stroke-width="1.5"></path><path d="M1097.4 203.1L1280.19 239.03" stroke="hsl(228.5, 77.2%, 51.5%)" stroke-width="1.5"></path><path d="M1118.51 339.45L1118.51 339.45" stroke="hsl(228.5, 77.2%, 51.5%)" stroke-width="1.5"></path><path d="M1118.51 339.45L1250.62 391.65" stroke="hsl(228.5, 77.2%, 51.5%)" stroke-width="1.5"></path><path d="M1266.75 91.62L1266.75 91.62" stroke="hsl(228.5, 77.2%, 51.5%)" stroke-width="1.5"></path><path d="M1266.75 91.62L1280.19 239.03" stroke="hsl(228.5, 77.2%, 51.5%)" stroke-width="1.5"></path><path d="M1266.75 91.62L1449.88 46.19" stroke="hsl(228.5, 77.2%, 51.5%)" stroke-width="1.5"></path><path d="M1266.75 91.62L1422.07 213.44" stroke="hsl(228.5, 77.2%, 51.5%)" stroke-width="1.5"></path><path d="M1266.75 91.62L1097.4 203.1" stroke="hsl(228.5, 77.2%, 51.5%)" stroke-width="1.5"></path><path d="M1280.19 239.03L1280.19 239.03" stroke="hsl(228.5, 77.2%, 51.5%)" stroke-width="1.5"></path><path d="M1280.19 239.03L1422.07 213.44" stroke="hsl(228.5, 77.2%, 51.5%)" stroke-width="1.5"></path><path d="M1280.19 239.03L1250.62 391.65" stroke="hsl(228.5, 77.2%, 51.5%)" stroke-width="1.5"></path><path d="M1280.19 239.03L1403.74 358.52" stroke="hsl(228.5, 77.2%, 51.5%)" stroke-width="1.5"></path><path d="M1250.62 391.65L1250.62 391.65" stroke="hsl(228.5, 77.2%, 51.5%)" stroke-width="1.5"></path><path d="M1250.62 391.65L1242.85 522.65" stroke="hsl(228.5, 77.2%, 51.5%)" stroke-width="1.5"></path><path d="M1250.62 391.65L1403.74 358.52" stroke="hsl(228.5, 77.2%, 51.5%)" stroke-width="1.5"></path><path d="M1242.85 522.65L1242.85 522.65" stroke="hsl(228.5, 77.2%, 51.5%)" stroke-width="1.5"></path><path d="M1244.56 675.13L1244.56 675.13" stroke="hsl(228.5, 77.2%, 51.5%)" stroke-width="1.5"></path><path d="M1244.56 675.13L1242.85 522.65" stroke="hsl(228.5, 77.2%, 51.5%)" stroke-width="1.5"></path><path d="M1244.56 675.13L1416.63 695.53" stroke="hsl(228.5, 77.2%, 51.5%)" stroke-width="1.5"></path><path d="M1244.56 675.13L1136.26 519.69" stroke="hsl(228.5, 77.2%, 51.5%)" stroke-width="1.5"></path><path d="M1244.56 675.13L1006.64 657.29" stroke="hsl(228.5, 77.2%, 51.5%)" stroke-width="1.5"></path><path d="M1244.56 675.13L1461.14 513.64" stroke="hsl(228.5, 77.2%, 51.5%)" stroke-width="1.5"></path><path d="M1449.88 46.19L1449.88 46.19" stroke="hsl(228.5, 77.2%, 51.5%)" stroke-width="1.5"></path><path d="M1449.88 46.19L1554.26 59.21" stroke="hsl(228.5, 77.2%, 51.5%)" stroke-width="1.5"></path><path d="M1422.07 213.44L1422.07 213.44" stroke="hsl(228.5, 77.2%, 51.5%)" stroke-width="1.5"></path><path d="M1422.07 213.44L1565.43 236.08" stroke="hsl(228.5, 77.2%, 51.5%)" stroke-width="1.5"></path><path d="M1422.07 213.44L1403.74 358.52" stroke="hsl(228.5, 77.2%, 51.5%)" stroke-width="1.5"></path><path d="M1403.74 358.52L1403.74 358.52" stroke="hsl(228.5, 77.2%, 51.5%)" stroke-width="1.5"></path><path d="M1403.74 358.52L1551.23 404.55" stroke="hsl(228.5, 77.2%, 51.5%)" stroke-width="1.5"></path><path d="M1461.14 513.64L1461.14 513.64" stroke="hsl(228.5, 77.2%, 51.5%)" stroke-width="1.5"></path><path d="M1461.14 513.64L1541.86 493.13" stroke="hsl(228.5, 77.2%, 51.5%)" stroke-width="1.5"></path><path d="M1461.14 513.64L1551.23 404.55" stroke="hsl(228.5, 77.2%, 51.5%)" stroke-width="1.5"></path><path d="M1461.14 513.64L1403.74 358.52" stroke="hsl(228.5, 77.2%, 51.5%)" stroke-width="1.5"></path><path d="M1416.63 695.53L1416.63 695.53" stroke="hsl(228.5, 77.2%, 51.5%)" stroke-width="1.5"></path><path d="M1416.63 695.53L1461.14 513.64" stroke="hsl(228.5, 77.2%, 51.5%)" stroke-width="1.5"></path><path d="M1416.63 695.53L1601.35 641.2" stroke="hsl(228.5, 77.2%, 51.5%)" stroke-width="1.5"></path><path d="M1416.63 695.53L1541.86 493.13" stroke="hsl(228.5, 77.2%, 51.5%)" stroke-width="1.5"></path><path d="M1416.63 695.53L1242.85 522.65" stroke="hsl(228.5, 77.2%, 51.5%)" stroke-width="1.5"></path><path d="M1416.63 695.53L1107.84 703.42" stroke="hsl(228.5, 77.2%, 51.5%)" stroke-width="1.5"></path><path d="M1567.5 -99.21L1567.5 -99.21" stroke="hsl(228.5, 77.2%, 51.5%)" stroke-width="1.5"></path><path d="M1567.5 -99.21L1554.26 59.21" stroke="hsl(228.5, 77.2%, 51.5%)" stroke-width="1.5"></path><path d="M1567.5 -99.21L1449.88 46.19" stroke="hsl(228.5, 77.2%, 51.5%)" stroke-width="1.5"></path><path d="M1554.26 59.21L1554.26 59.21" stroke="hsl(228.5, 77.2%, 51.5%)" stroke-width="1.5"></path><path d="M1565.43 236.08L1565.43 236.08" stroke="hsl(228.5, 77.2%, 51.5%)" stroke-width="1.5"></path><path d="M1565.43 236.08L1551.23 404.55" stroke="hsl(228.5, 77.2%, 51.5%)" stroke-width="1.5"></path><path d="M1551.23 404.55L1551.23 404.55" stroke="hsl(228.5, 77.2%, 51.5%)" stroke-width="1.5"></path><path d="M1551.23 404.55L1541.86 493.13" stroke="hsl(228.5, 77.2%, 51.5%)" stroke-width="1.5"></path><path d="M1541.86 493.13L1541.86 493.13" stroke="hsl(228.5, 77.2%, 51.5%)" stroke-width="1.5"></path><path d="M1541.86 493.13L1601.35 641.2" stroke="hsl(228.5, 77.2%, 51.5%)" stroke-width="1.5"></path><path d="M1601.35 641.2L1601.35 641.2" stroke="hsl(228.5, 77.2%, 51.5%)" stroke-width="1.5"></path><path d="M1601.35 641.2L1461.14 513.64" stroke="hsl(228.5, 77.2%, 51.5%)" stroke-width="1.5"></path><path d="M1601.35 641.2L1551.23 404.55" stroke="hsl(228.5, 77.2%, 51.5%)" stroke-width="1.5"></path><circle r="25" cx="56.61" cy="681.39" fill="url(#SvgjsRadialGradient1001)"></circle><circle r="25" cx="686.47" cy="385.99" fill="url(#SvgjsRadialGradient1001)"></circle><circle r="25" cx="857.51" cy="505.97" fill="url(#SvgjsRadialGradient1001)"></circle><circle r="25" cx="998.56" cy="527.42" fill="url(#SvgjsRadialGradient1001)"></circle><circle r="25" cx="1136.26" cy="519.69" fill="url(#SvgjsRadialGradient1001)"></circle><circle r="25" cx="1107.84" cy="703.42" fill="url(#SvgjsRadialGradient1001)"></circle><circle r="25" cx="1270.28" cy="-38.39" fill="url(#SvgjsRadialGradient1001)"></circle><circle r="25" cx="1456.58" cy="-53.35" fill="url(#SvgjsRadialGradient1001)"></circle><circle r="5" cx="-77.12" cy="514.27" fill="#8b9ad9"></circle><circle r="5" cx="-99.7" cy="691.57" fill="#8b9ad9"></circle><circle r="5" cx="79.9" cy="522.38" fill="#8b9ad9"></circle><circle r="5" cx="223.31" cy="535.01" fill="#8b9ad9"></circle><circle r="5" cx="406.89" cy="503.48" fill="#8b9ad9"></circle><circle r="5" cx="337.54" cy="694.02" fill="#8b9ad9"></circle><circle r="5" cx="499.6" cy="702.35" fill="#8b9ad9"></circle><circle r="5" cx="673.95" cy="542.94" fill="#8b9ad9"></circle><circle r="5" cx="676.9" cy="645.46" fill="#8b9ad9"></circle><circle r="5" cx="851.73" cy="369.94" fill="#8b9ad9"></circle><circle r="5" cx="837.95" cy="646.13" fill="#8b9ad9"></circle><circle r="5" cx="966.01" cy="358.68" fill="#8b9ad9"></circle><circle r="5" cx="1006.64" cy="657.29" fill="#8b9ad9"></circle><circle r="5" cx="1097.4" cy="203.1" fill="#8b9ad9"></circle><circle r="5" cx="1118.51" cy="339.45" fill="#8b9ad9"></circle><circle r="5" cx="1266.75" cy="91.62" fill="#8b9ad9"></circle><circle r="5" cx="1280.19" cy="239.03" fill="#8b9ad9"></circle><circle r="5" cx="1250.62" cy="391.65" fill="#8b9ad9"></circle><circle r="5" cx="1242.85" cy="522.65" fill="#8b9ad9"></circle><circle r="5" cx="1244.56" cy="675.13" fill="#8b9ad9"></circle><circle r="5" cx="1449.88" cy="46.19" fill="#8b9ad9"></circle><circle r="5" cx="1422.07" cy="213.44" fill="#8b9ad9"></circle><circle r="5" cx="1403.74" cy="358.52" fill="#8b9ad9"></circle><circle r="5" cx="1461.14" cy="513.64" fill="#8b9ad9"></circle><circle r="5" cx="1416.63" cy="695.53" fill="#8b9ad9"></circle><circle r="5" cx="1567.5" cy="-99.21" fill="#8b9ad9"></circle><circle r="5" cx="1554.26" cy="59.21" fill="#8b9ad9"></circle><circle r="5" cx="1565.43" cy="236.08" fill="#8b9ad9"></circle><circle r="5" cx="1551.23" cy="404.55" fill="#8b9ad9"></circle><circle r="5" cx="1541.86" cy="493.13" fill="#8b9ad9"></circle><circle r="5" cx="1601.35" cy="641.2" fill="#8b9ad9"></circle></g><defs><mask id="SvgjsMask1000"><rect width="1440" height="560" fill="#ffffff"></rect></mask><radialGradient id="SvgjsRadialGradient1001"><stop stop-color="#ffffff" offset="0.1"></stop><stop stop-color="#1735b3" offset="0.2"></stop><stop stop-color="rgba(23, 53, 179, 0)" offset="1"></stop></radialGradient></defs></svg>